<?xml version="1.0" encoding="UTF-8" standalone="no"?>
<!-- Created with Inkscape (http://www.inkscape.org/) -->

<svg
   width="127.13684mm"
   height="127.13684mm"
   viewBox="0 0 127.13684 127.13684"
   version="1.1"
   id="svg1"
   xmlns="http://www.w3.org/2000/svg"
   xmlns:svg="http://www.w3.org/2000/svg">
  <defs
     id="defs1">
    <linearGradient
       id="swatch31">
      <stop
         style="stop-color:#e01e14;stop-opacity:1;"
         offset="0"
         id="stop31" />
    </linearGradient>
  </defs>
  <g
     id="layer1"
     transform="translate(-48.086206,-31.578095)">
    <g
       id="g37"
       transform="translate(6.6000027,-8.6842108)">
      <path
         id="path29"
         style="fill:#e7e74c;fill-opacity:0.590361;stroke-width:0.265"
         d="M 168.62305,103.83073 A 63.56842,63.56842 0 0 1 105.05463,167.39915 63.56842,63.56842 0 0 1 41.486206,103.83073 63.56842,63.56842 0 0 1 105.05463,40.262306 63.56842,63.56842 0 0 1 168.62305,103.83073 Z" />
      <path
         style="fill:#e01e14;fill-opacity:0.843373;stroke-width:0.350693"
         d="M 116.1298,115.48866 V 69.462285 h 21.36315 21.36316 v 6.018828 6.018823 h -13.72105 -13.72105 v 13.807897 13.807937 h 11.63684 11.63684 v 5.84182 5.84179 h -11.63684 -11.63684 v 20.35781 20.35778 h -7.64211 -7.6421 z"
         id="path28" />
      <path
         style="fill:#0ea501;fill-opacity:0.843373;stroke-width:0.348036"
         d="M 60.61579,103.86316 V 58.531577 h 7.812873 7.81287 l 0.08976,19.385152 0.08976,19.385149 8.824659,-19.385149 8.824656,-19.385152 h 8.456922 c 4.6513,0 8.45692,0.0692 8.45692,0.15377 0,0.08457 -4.82742,9.957441 -10.7276,21.939707 l -10.727598,21.785936 8.142247,15.98191 c 4.478231,8.79004 9.851831,19.31638 11.941331,23.39187 l 3.79908,7.40997 h -8.48272 -8.482706 L 86.37698,128.8827 76.307721,108.57067 l -0.03018,20.31203 -0.03018,20.31204 H 68.431578 60.61579 Z"
         id="path1" />
    </g>
  </g>
</svg>
