<svg width="1028" height="319" viewBox="0 0 1028 319" fill="none" xmlns="http://www.w3.org/2000/svg">
<path d="M101.969 50C103.289 51.353 103.423 52.4386 103.879 54.2734C103.962 54.6053 104.047 54.9374 104.133 55.2793C104.409 56.38 104.68 57.482 104.951 58.584C105.143 59.3524 105.336 60.1214 105.528 60.8896C106.036 62.9184 106.54 64.9485 107.042 66.9785C107.549 69.0245 108.059 71.0702 108.569 73.1152C109.145 75.4235 109.721 77.7319 110.294 80.041C110.381 80.3935 110.469 80.7462 110.56 81.1094C110.81 82.1181 111.06 83.1279 111.31 84.1367C111.845 86.2606 112.412 88.3752 112.996 90.4863C113.243 91.6363 113.244 91.6375 113.219 93.6865C115.029 92.0942 116.189 90.3125 117.367 88.2373C117.756 87.5715 118.145 86.9048 118.534 86.2393C119.14 85.1949 119.745 84.1499 120.344 83.1016C120.926 82.0857 121.517 81.075 122.11 80.0654C122.288 79.7492 122.465 79.4323 122.647 79.1064C123.166 78.2317 123.167 78.2309 124.183 76.9121C126.575 76.9414 127.347 77.4873 129.345 78.751C129.788 79.0275 129.789 79.0276 130.241 79.3096C131.185 79.898 132.125 80.4925 133.064 81.0879C134.002 81.6813 134.941 82.273 135.883 82.8604C136.739 83.3943 137.591 83.9341 138.443 84.4736C139.88 85.2583 140.891 85.7253 142.517 85.8467C143.544 85.4866 143.544 85.4858 144.468 84.8135C144.824 84.58 145.181 84.3461 145.549 84.1055C145.921 83.8513 146.294 83.5968 146.678 83.335C147.457 82.8226 148.237 82.3119 149.018 81.8018C149.593 81.4228 149.594 81.4227 150.181 81.0361C152.548 79.5107 155.016 78.1615 157.484 76.8076C158.482 78.3658 159.476 79.9266 160.47 81.4873C160.743 81.9146 161.017 82.342 161.299 82.7822C163.059 85.5511 164.746 88.3558 166.394 91.1924C166.6 91.5479 166.808 91.9042 167.021 92.2705C167.526 93.1381 168.031 94.0061 168.535 94.874C168.681 94.3595 168.828 93.8445 168.979 93.3145C170.356 88.4688 171.735 83.6227 173.114 78.7773C173.823 76.2862 174.532 73.795 175.24 71.3037C175.924 68.9004 176.607 66.4969 177.291 64.0938C177.552 63.1761 177.814 62.2585 178.075 61.3408C178.44 60.0572 178.805 58.7727 179.171 57.4893C179.279 57.1082 179.387 56.7266 179.498 56.334C179.915 54.8719 180.344 53.426 180.843 51.9893C187.006 53.4813 193.123 55.1089 199.228 56.8242C198.876 59.8715 198.242 62.7138 197.399 65.6602C197.271 66.1164 197.144 66.5729 197.012 67.043C196.588 68.5481 196.161 70.0526 195.733 71.5566C195.433 72.6206 195.134 73.6859 194.834 74.75C194.043 77.5583 193.247 80.3657 192.451 83.1729C191.66 85.9664 190.873 88.7613 190.085 91.5557C188.564 96.9454 187.038 102.334 185.508 107.721C186.344 106.908 187.18 106.096 188.017 105.284C194.412 99.0735 200.807 92.862 207.162 86.6094C207.921 85.863 208.681 85.1158 209.44 84.3701C211.738 82.1141 214.032 79.8548 216.32 77.5898C217.127 76.7968 217.935 76.0036 218.742 75.2109C219.101 74.853 219.461 74.4957 219.831 74.127C220.161 73.8049 220.492 73.4822 220.831 73.1504C221.113 72.8713 221.396 72.5902 221.687 72.3027C222.634 71.5693 223.408 71.3251 224.574 71.0898C226.373 72.9005 228.167 74.7174 229.955 76.5391C230.564 77.1582 231.176 77.7766 231.789 78.3926C232.668 79.2768 233.542 80.1666 234.414 81.0576C234.69 81.3332 234.966 81.6106 235.251 81.8945C235.908 82.572 236.519 83.2945 237.119 84.0234C236.608 85.8433 235.734 86.5019 234.373 87.8145C234.128 88.0526 233.882 88.2917 233.629 88.5371C232.814 89.3266 231.995 90.1126 231.177 90.8984C230.607 91.4487 230.038 92 229.469 92.5508C227.966 94.0046 226.459 95.4562 224.952 96.9062C223.434 98.3682 221.917 99.8324 220.401 101.297C218.69 102.95 216.979 104.603 215.266 106.254C215.004 106.506 214.743 106.758 214.474 107.018C213.725 107.739 212.975 108.46 212.227 109.181C210.655 110.707 209.107 112.255 207.57 113.816C206.698 114.605 206.698 114.607 204.911 115.609C207.195 116.381 209.318 116.495 211.704 116.478C212.475 116.481 213.247 116.485 214.018 116.489C215.225 116.492 216.432 116.493 217.64 116.487C218.81 116.484 219.982 116.49 221.152 116.499C221.515 116.494 221.878 116.489 222.252 116.484C223.268 116.496 223.27 116.497 224.92 116.717C226.091 118.804 226.004 119.746 225.908 122.107C225.891 122.63 225.891 122.63 225.873 123.163C225.835 124.275 225.79 125.386 225.744 126.497C225.699 127.606 225.656 128.715 225.618 129.824C225.584 130.832 225.543 131.84 225.502 132.848C225.541 134.484 225.641 135.594 226.349 137.062C227.174 137.772 227.176 137.772 228.22 138.235C228.6 138.427 228.981 138.62 229.373 138.817C229.779 139.013 230.186 139.209 230.604 139.41C231.438 139.829 232.27 140.249 233.103 140.67C233.718 140.979 233.719 140.979 234.348 141.294C236.852 142.581 239.255 144.044 241.661 145.505C240.81 147.148 239.955 148.79 239.101 150.431C238.867 150.881 238.635 151.332 238.395 151.796C236.876 154.704 235.291 157.568 233.658 160.413C233.454 160.77 233.249 161.128 233.038 161.496C232.539 162.367 232.04 163.238 231.54 164.108C232.059 163.978 232.578 163.847 233.112 163.713C237.998 162.483 242.885 161.254 247.771 160.025C250.282 159.394 252.794 158.762 255.306 158.13C257.729 157.52 260.152 156.91 262.575 156.301C263.5 156.068 264.427 155.836 265.352 155.604C266.645 155.278 267.94 154.952 269.234 154.627C269.618 154.53 270.003 154.433 270.398 154.333C271.873 153.963 273.34 153.612 274.834 153.325C276.623 159.409 278.272 165.52 279.839 171.664C277.024 172.883 274.245 173.755 271.272 174.499C270.813 174.616 270.354 174.734 269.881 174.854C268.366 175.241 266.849 175.622 265.333 176.004C264.262 176.276 263.189 176.55 262.118 176.822C259.29 177.541 256.461 178.255 253.632 178.97C250.817 179.682 248.003 180.397 245.189 181.112C239.761 182.491 234.331 183.862 228.899 185.23C230.022 185.549 231.144 185.867 232.266 186.186C240.842 188.619 249.419 191.051 258.012 193.428C259.037 193.712 260.064 193.997 261.089 194.281C264.191 195.143 267.296 196 270.401 196.85C271.492 197.152 272.583 197.455 273.673 197.758C274.162 197.89 274.652 198.022 275.156 198.158C275.6 198.283 276.044 198.408 276.501 198.536C276.884 198.641 277.269 198.745 277.663 198.854C278.772 199.308 279.371 199.855 280.158 200.747C279.49 203.211 278.813 205.673 278.129 208.133C277.897 208.97 277.668 209.809 277.44 210.647C277.114 211.851 276.781 213.052 276.445 214.253C276.345 214.63 276.242 215.007 276.139 215.396C275.881 216.304 275.561 217.195 275.229 218.079C273.398 218.546 272.39 218.119 270.573 217.597C270.244 217.503 269.914 217.41 269.575 217.313C268.484 217.002 267.394 216.686 266.305 216.37C265.543 216.152 264.78 215.934 264.019 215.717C262.008 215.142 259.998 214.563 257.989 213.983C255.964 213.4 253.937 212.818 251.911 212.237C249.624 211.582 247.337 210.927 245.051 210.269C244.702 210.168 244.352 210.067 243.992 209.964C242.994 209.676 241.995 209.388 240.996 209.1C238.889 208.502 236.774 207.936 234.653 207.386C233.534 207.025 233.532 207.025 231.771 205.979C232.244 208.343 233.208 210.238 234.416 212.296C234.798 212.965 235.181 213.636 235.562 214.306C236.164 215.353 236.767 216.399 237.375 217.441C237.964 218.454 238.543 219.471 239.121 220.489C239.306 220.801 239.493 221.113 239.684 221.434C240.182 222.32 240.182 222.321 240.816 223.86C239.595 225.918 238.735 226.313 236.643 227.411C236.181 227.657 236.18 227.657 235.71 227.908C234.729 228.431 233.744 228.949 232.759 229.465C231.776 229.98 230.794 230.498 229.814 231.02C228.924 231.494 228.03 231.961 227.137 232.43C225.739 233.281 224.829 233.923 223.911 235.271C223.709 236.341 223.71 236.342 223.831 237.478C223.855 237.903 223.879 238.329 223.903 238.768C223.937 239.217 223.971 239.668 224.006 240.131C224.06 241.062 224.113 241.993 224.164 242.924C224.205 243.611 224.204 243.612 224.245 244.313C224.383 247.126 224.317 249.939 224.256 252.753C222.408 252.838 220.558 252.918 218.71 252.998C218.203 253.021 217.696 253.045 217.174 253.069C213.896 253.209 210.624 253.268 207.344 253.276C206.932 253.278 206.52 253.28 206.096 253.281C205.092 253.285 204.088 253.287 203.084 253.29C203.456 253.674 203.829 254.059 204.213 254.454C207.72 258.07 211.228 261.687 214.734 265.304C216.537 267.163 218.341 269.023 220.145 270.882C221.884 272.675 223.624 274.469 225.363 276.263C226.027 276.948 226.69 277.634 227.354 278.318C228.284 279.276 229.214 280.235 230.143 281.193C230.418 281.477 230.695 281.761 230.979 282.054C232.037 283.146 233.074 284.241 234.069 285.391C229.696 289.982 225.228 294.466 220.69 298.896C218.228 297.067 216.083 295.097 213.952 292.895C213.621 292.555 213.289 292.216 212.948 291.867C211.856 290.748 210.768 289.625 209.679 288.503C208.907 287.711 208.134 286.918 207.362 286.127C205.326 284.038 203.293 281.945 201.26 279.853C199.236 277.771 197.209 275.692 195.184 273.612C191.276 269.6 187.372 265.584 183.472 261.564C183.757 262.695 184.043 263.826 184.328 264.957C186.509 273.601 188.691 282.245 190.929 290.875C191.196 291.905 191.462 292.936 191.729 293.967C192.534 297.084 193.343 300.201 194.16 303.315C194.443 304.411 194.727 305.507 195.01 306.603C195.14 307.092 195.27 307.583 195.404 308.088C195.518 308.534 195.632 308.982 195.75 309.441C195.85 309.825 195.952 310.211 196.056 310.606C196.217 311.794 196.042 312.586 195.663 313.714C193.195 314.367 190.725 315.012 188.253 315.649C187.412 315.868 186.57 316.088 185.73 316.311C184.525 316.629 183.318 316.941 182.11 317.251C181.734 317.352 181.356 317.453 180.968 317.558C180.052 317.788 179.121 317.956 178.189 318.111C176.869 316.758 176.735 315.672 176.279 313.838C176.196 313.506 176.111 313.174 176.025 312.832C175.749 311.731 175.478 310.629 175.207 309.527C175.015 308.759 174.822 307.99 174.63 307.222C174.122 305.193 173.619 303.163 173.116 301.133C172.609 299.087 172.099 297.041 171.589 294.996C171.013 292.688 170.437 290.379 169.864 288.07C169.777 287.718 169.689 287.365 169.599 287.002C169.348 285.993 169.099 284.983 168.849 283.975C168.313 281.851 167.746 279.736 167.162 277.625C166.915 276.475 166.914 276.473 166.939 274.425C165.129 276.017 163.97 277.799 162.791 279.874C162.402 280.54 162.013 281.207 161.624 281.872C161.018 282.916 160.413 283.961 159.814 285.01C159.232 286.026 158.641 287.036 158.048 288.046C157.871 288.362 157.693 288.679 157.511 289.005C156.992 289.879 156.991 289.881 155.976 291.199C153.583 291.17 152.811 290.624 150.813 289.36C150.37 289.084 150.369 289.083 149.917 288.802C148.973 288.213 148.033 287.619 147.094 287.023C146.156 286.43 145.217 285.838 144.275 285.251C143.42 284.717 142.567 284.177 141.715 283.638C140.278 282.853 139.267 282.386 137.642 282.265C136.614 282.625 136.614 282.626 135.69 283.298C135.334 283.531 134.977 283.765 134.609 284.006C134.237 284.26 133.864 284.515 133.48 284.776C132.701 285.289 131.921 285.799 131.141 286.31C130.565 286.689 130.564 286.689 129.978 287.075C127.611 288.601 125.142 289.95 122.674 291.304C121.677 289.746 120.682 288.185 119.688 286.624C119.415 286.197 119.141 285.769 118.859 285.329C117.1 282.56 115.412 279.755 113.765 276.919C113.558 276.564 113.35 276.207 113.137 275.841C112.632 274.973 112.127 274.105 111.623 273.237C111.477 273.752 111.33 274.267 111.18 274.797C109.802 279.642 108.423 284.489 107.044 289.334C106.335 291.825 105.626 294.316 104.918 296.808C104.235 299.211 103.551 301.615 102.867 304.018C102.606 304.935 102.344 305.853 102.083 306.771C101.718 308.054 101.353 309.339 100.987 310.622C100.879 311.003 100.772 311.385 100.66 311.777C100.243 313.239 99.8139 314.685 99.3154 316.122C93.1524 314.63 87.0352 313.002 80.9307 311.287C81.2826 308.24 81.9165 305.397 82.7588 302.451C82.8868 301.995 83.0146 301.538 83.1465 301.068C83.5697 299.563 83.9977 298.059 84.4248 296.555C84.7248 295.491 85.0246 294.425 85.3242 293.361C86.1156 290.553 86.9116 287.746 87.707 284.938C88.4979 282.145 89.2854 279.35 90.0732 276.556C91.5939 271.165 93.1198 265.776 94.6504 260.389C93.8138 261.201 92.9773 262.015 92.1406 262.827C85.7451 269.038 79.3506 275.249 72.9961 281.502C72.2374 282.248 71.4771 282.995 70.7178 283.74C68.4206 285.996 66.1262 288.255 63.8379 290.521C63.0307 291.314 62.2236 292.108 61.416 292.9C61.057 293.258 60.6961 293.615 60.3262 293.984C59.9967 294.306 59.6666 294.629 59.3271 294.961C59.0448 295.24 58.7616 295.52 58.4707 295.808C57.523 296.541 56.7501 296.786 55.584 297.021C53.7846 295.211 51.9903 293.394 50.2021 291.572C49.5927 290.953 48.9818 290.334 48.3691 289.718C47.4904 288.834 46.6161 287.944 45.7441 287.053C45.4679 286.777 45.1918 286.501 44.9072 286.217C44.2498 285.539 43.6388 284.817 43.0391 284.088C43.5506 282.268 44.4235 281.609 45.7842 280.297C46.0297 280.059 46.2754 279.82 46.5283 279.574C47.3434 278.785 48.1628 277.999 48.9814 277.213C49.5509 276.663 50.1205 276.111 50.6895 275.561C52.1927 274.107 53.6992 272.655 55.2061 271.205C56.7244 269.743 58.241 268.278 59.7568 266.813C61.4678 265.161 63.1792 263.508 64.8926 261.857C65.1541 261.605 65.4151 261.352 65.6846 261.093C66.433 260.372 67.183 259.651 67.9316 258.93C69.503 257.404 71.0508 255.856 72.5869 254.295C73.4591 253.506 73.4604 253.505 75.2471 252.502C72.9628 251.73 70.8404 251.617 68.4541 251.634C67.6831 251.63 66.9107 251.626 66.1396 251.622C64.9324 251.619 63.7249 251.619 62.5176 251.624C61.3468 251.628 60.1756 251.62 59.0049 251.611C58.6425 251.616 58.2796 251.621 57.9062 251.626C56.8895 251.614 56.8882 251.614 55.2383 251.394C54.0674 249.307 54.1543 248.365 54.25 246.004C54.2676 245.482 54.2672 245.481 54.2852 244.948C54.3229 243.837 54.3681 242.725 54.4141 241.614C54.4591 240.506 54.5012 239.396 54.5391 238.287C54.5735 237.279 54.6151 236.271 54.6562 235.263C54.6176 233.626 54.5165 232.518 53.8086 231.049C52.9831 230.339 52.9822 230.339 51.9385 229.876C51.558 229.684 51.1772 229.491 50.7852 229.293C50.3788 229.097 49.9714 228.903 49.5527 228.701C48.7196 228.283 47.8876 227.862 47.0557 227.441C46.4399 227.133 46.4388 227.131 45.8105 226.816C43.3061 225.529 40.9035 224.066 38.4971 222.605C39.3477 220.963 40.2018 219.321 41.0566 217.681C41.2899 217.23 41.5234 216.78 41.7637 216.315C43.2817 213.407 44.8672 210.543 46.5 207.698C46.7043 207.341 46.9086 206.983 47.1191 206.615C47.618 205.744 48.1177 204.873 48.6172 204.002C48.0985 204.132 47.5793 204.264 47.0449 204.398C42.1596 205.628 37.2733 206.856 32.3877 208.085C29.876 208.717 27.3641 209.348 24.8525 209.98C22.4295 210.59 20.0062 211.2 17.583 211.81C16.6578 212.042 15.7318 212.274 14.8066 212.507C13.5127 212.833 12.218 213.159 10.9238 213.484C10.5398 213.581 10.1554 213.679 9.75977 213.778C8.2851 214.148 6.81773 214.499 5.32422 214.786C3.53485 208.703 1.88617 202.592 0.319336 196.447C3.13431 195.228 5.91291 194.356 8.88574 193.612C9.34469 193.495 9.80353 193.378 10.2764 193.257C11.7915 192.871 13.3091 192.489 14.8252 192.106C15.8965 191.834 16.9688 191.562 18.04 191.289C20.8678 190.57 23.6976 189.855 26.5264 189.141C29.3409 188.429 32.155 187.714 34.9688 186.999C40.3965 185.621 45.8255 184.247 51.2559 182.879C50.1346 182.561 49.0127 182.244 47.8916 181.926C39.3153 179.492 30.7387 177.06 22.1465 174.683C21.1208 174.399 20.0938 174.115 19.0684 173.83C15.9659 172.969 12.8626 172.11 9.75684 171.261C8.66644 170.958 7.57561 170.656 6.48535 170.354C5.99583 170.222 5.50629 170.088 5.00195 169.952C4.55831 169.828 4.11334 169.703 3.65625 169.575C3.27343 169.47 2.88953 169.365 2.49512 169.257C1.38599 168.803 0.786945 168.256 0 167.363C0.66842 164.9 1.34471 162.438 2.02832 159.979C2.2599 159.141 2.49055 158.302 2.71777 157.463C3.04409 156.26 3.37733 155.059 3.71289 153.858C3.81339 153.481 3.91501 153.103 4.01855 152.715C4.27658 151.807 4.59722 150.916 4.92871 150.032C6.7603 149.565 7.76717 149.992 9.58398 150.515C9.91302 150.608 10.243 150.701 10.582 150.798C11.6734 151.109 12.7636 151.425 13.8535 151.741C14.6149 151.959 15.3771 152.177 16.1387 152.395C18.1493 152.969 20.1597 153.548 22.1689 154.128C24.1942 154.712 26.2208 155.293 28.2471 155.873C30.5341 156.528 32.8213 157.184 35.1074 157.843C35.4564 157.943 35.8055 158.044 36.165 158.147C37.1638 158.435 38.1635 158.723 39.1621 159.011C41.2692 159.609 43.3837 160.176 45.5039 160.726C46.6234 161.086 46.6249 161.087 48.3867 162.133C47.913 159.769 46.9501 157.874 45.7422 155.815C45.36 155.146 44.9774 154.476 44.5957 153.806C43.9943 152.759 43.3906 151.713 42.7822 150.67C42.1937 149.658 41.6148 148.64 41.0371 147.622C40.8519 147.31 40.6654 146.998 40.4746 146.677C39.9764 145.791 39.976 145.789 39.3418 144.25C40.5635 142.193 41.4227 141.797 43.5156 140.699C43.9767 140.453 43.977 140.453 44.4473 140.202C45.4288 139.679 46.4141 139.162 47.3994 138.646C48.3821 138.131 49.3644 137.614 50.3438 137.092C51.2339 136.618 52.1272 136.149 53.0205 135.681C54.4183 134.829 55.328 134.187 56.2461 132.84C56.4481 131.77 56.4477 131.769 56.3271 130.634C56.3032 130.208 56.2796 129.782 56.2549 129.344C56.221 128.894 56.1863 128.444 56.1514 127.98C56.0972 127.05 56.0457 126.119 55.9941 125.188C55.9536 124.5 55.9535 124.499 55.9121 123.798C55.7745 120.985 55.8408 118.173 55.9023 115.358C57.7503 115.274 59.5991 115.192 61.4473 115.112C61.954 115.089 62.4613 115.066 62.9834 115.042C66.2612 114.902 69.5342 114.843 72.8145 114.835C73.2258 114.834 73.6387 114.832 74.0625 114.83C75.0661 114.827 76.0697 114.824 77.0732 114.821C76.7009 114.437 76.328 114.053 75.9443 113.657C72.4369 110.041 68.9296 106.423 65.4229 102.807C63.6201 100.947 61.8168 99.0884 60.0137 97.2295C58.274 95.436 56.534 93.6417 54.7949 91.8477C54.1309 91.1628 53.467 90.4766 52.8027 89.792C51.8737 88.8344 50.9441 87.876 50.0156 86.918C49.7397 86.6338 49.463 86.3495 49.1787 86.0566C48.121 84.9645 47.0829 83.8698 46.0879 82.7197C50.4616 78.1283 54.93 73.645 59.4678 69.2158C61.9308 71.0442 64.0756 73.0141 66.2061 75.2168C66.5371 75.5558 66.8688 75.8948 67.21 76.2441C68.3017 77.3631 69.3907 78.4856 70.4795 79.6074C71.2508 80.3992 72.0232 81.1919 72.7949 81.9834C74.8313 84.073 76.8651 86.1663 78.8984 88.2588C80.9221 90.3403 82.9487 92.4196 84.9746 94.499C88.8817 98.5104 92.7857 102.525 96.6855 106.544C96.4003 105.414 96.1151 104.284 95.8301 103.154C93.6493 94.5101 91.4671 85.8661 89.2295 77.2363C88.9625 76.2061 88.6958 75.175 88.4297 74.1445C87.6245 71.027 86.8155 67.9103 85.998 64.7959C85.7147 63.7003 85.4312 62.6045 85.1484 61.5088C85.0179 61.0188 84.8884 60.5283 84.7539 60.0234C84.6398 59.577 84.5257 59.1299 84.4082 58.6699C84.3077 58.2857 84.2061 57.9007 84.1025 57.5049C83.9413 56.3173 84.1157 55.5252 84.4951 54.3975C86.963 53.7445 89.4334 53.0996 91.9053 52.4619C92.7463 52.2437 93.5878 52.0233 94.4277 51.8008C95.6329 51.4819 96.8403 51.17 98.0479 50.8604C98.4246 50.7589 98.8022 50.6583 99.1904 50.5537C100.106 50.3231 101.037 50.1549 101.969 50ZM919.446 93.8525C946.545 90.8233 971.587 95.6048 993.411 112.375C1010.35 126.706 1024.65 147.608 1026.84 170.254C1027.89 184.993 1028.3 199.594 1023 213.566L1021.72 217.121C1012.34 240.991 993.934 257.94 971.001 268.566C949.557 277.504 924.283 277.322 902.821 268.689C885.697 261.315 871.8 249.685 861.001 234.566L860.001 314.566H827.001V110.566H860.001L861.001 133.566L864.563 128.504C877.118 111.387 898.146 97.1313 919.446 93.8525ZM140.03 88.9521C139.321 90.5698 138.47 92.0038 137.538 93.5049C137.263 93.9496 137.263 93.9497 136.982 94.4033C136.381 95.3753 135.776 96.3461 135.172 97.3164C134.752 97.9938 134.332 98.672 133.912 99.3496C130.609 104.678 127.29 109.997 123.961 115.31C121.883 118.624 121.882 118.625 119.872 121.981C118.952 123.555 117.96 125.028 116.915 126.52C116.402 126.175 115.888 125.831 115.359 125.477C112.437 123.79 110.028 124.276 106.878 125.117C106.854 125.124 106.832 125.13 106.81 125.137C104.44 127.486 104.387 127.631 103.156 130.974C103.168 131.326 103.179 131.68 103.191 132.043C103.223 132.982 103.224 132.983 103.256 133.941C102.351 134.029 101.444 134.111 100.538 134.19C100.034 134.237 99.5291 134.283 99.0098 134.33C97.3112 134.398 95.6747 134.368 93.9785 134.295C90.7855 134.161 87.6257 134.223 84.4336 134.347C83.2706 134.387 82.1064 134.427 80.9434 134.467C80.3436 134.487 79.7429 134.508 79.125 134.529C75.9083 134.631 72.6901 134.702 69.4727 134.772C68.8743 134.786 68.2747 134.8 67.6582 134.813C67.0882 134.826 66.5179 134.837 65.9307 134.85C65.3914 134.862 64.8516 134.875 64.2959 134.888C63.2974 134.908 62.2984 134.923 61.2998 134.931C60.8651 134.935 60.4303 134.939 59.9824 134.943C59.6059 134.945 59.2287 134.947 58.8408 134.949C57.865 134.962 57.8642 134.962 56.9629 135.647C57.2038 135.944 57.4442 136.241 57.6924 136.546C58.7386 137.969 59.5555 139.423 60.3896 140.98C60.6373 141.441 60.637 141.441 60.8896 141.911C61.4306 142.918 61.9688 143.927 62.5068 144.936C62.8834 145.638 63.2608 146.341 63.6377 147.043C66.6006 152.568 69.5482 158.103 72.4844 163.642C74.3158 167.098 74.3155 167.1 76.2178 170.519C77.1209 172.102 77.9003 173.697 78.6689 175.348C78.1142 175.62 77.5598 175.893 76.9883 176.174C74.0669 177.861 73.2831 180.19 72.4365 183.339C72.4309 183.362 72.4242 183.385 72.4189 183.407C73.2687 186.634 73.3668 186.753 75.6465 189.49C75.9577 189.656 76.2702 189.823 76.5908 189.994C77.4202 190.437 77.4212 190.437 78.2676 190.889C77.8912 191.716 77.5083 192.542 77.124 193.366C76.9119 193.826 76.699 194.285 76.4805 194.759C75.6899 196.264 74.8472 197.667 73.9355 199.1C72.2233 201.798 70.6961 204.565 69.207 207.391C68.6606 208.418 68.1128 209.448 67.5654 210.475C67.2834 211.004 67.0015 211.534 66.7109 212.08C65.191 214.917 63.6425 217.74 62.0947 220.562C61.8071 221.086 61.52 221.612 61.2236 222.152C60.9494 222.652 60.6741 223.152 60.3916 223.667C60.1327 224.14 59.8742 224.614 59.6074 225.102C59.1256 225.976 58.6388 226.849 58.1465 227.718C57.9331 228.096 57.7189 228.475 57.499 228.865C57.3122 229.192 57.1241 229.52 56.9316 229.856C56.4551 230.708 56.456 230.709 56.5986 231.832C56.9755 231.771 57.3529 231.712 57.7412 231.649C59.4969 231.455 61.165 231.475 62.9307 231.531C63.4529 231.547 63.4533 231.547 63.9863 231.563C65.1288 231.598 66.2717 231.637 67.4141 231.675C68.2106 231.7 69.0081 231.724 69.8047 231.749C76.0708 231.945 82.3375 232.16 88.6025 232.387C92.5121 232.529 92.513 232.53 96.4248 232.592C98.2475 232.601 100.019 232.724 101.833 232.884C101.792 233.5 101.751 234.118 101.708 234.753C101.709 238.127 103.334 239.97 105.638 242.277C105.655 242.294 105.673 242.31 105.689 242.326C108.908 243.203 109.06 243.179 112.57 242.573C112.87 242.387 113.17 242.2 113.479 242.008C114.276 241.511 114.277 241.51 115.091 241.003C115.619 241.743 116.144 242.487 116.665 243.231C116.957 243.645 117.249 244.059 117.55 244.485C118.458 245.923 119.251 247.355 120.036 248.86C121.517 251.692 123.15 254.398 124.853 257.101C125.469 258.087 126.086 259.076 126.702 260.063C127.02 260.572 127.338 261.082 127.665 261.606C129.362 264.341 131.032 267.093 132.702 269.845C133.013 270.356 133.325 270.868 133.645 271.396C133.94 271.883 134.235 272.371 134.54 272.873C134.82 273.334 135.102 273.795 135.391 274.27C135.907 275.124 136.42 275.982 136.926 276.843C137.147 277.217 137.368 277.592 137.596 277.978C137.785 278.303 137.975 278.629 138.171 278.964C138.67 279.802 138.671 279.802 139.715 280.24C139.851 279.884 139.988 279.527 140.128 279.159C140.837 277.542 141.689 276.107 142.62 274.606C142.895 274.162 142.895 274.161 143.176 273.708C143.777 272.736 144.382 271.765 144.986 270.795C145.406 270.118 145.826 269.439 146.246 268.762C149.549 263.433 152.868 258.114 156.197 252.802C158.275 249.487 158.277 249.487 160.286 246.13C161.206 244.556 162.198 243.083 163.243 241.592C163.756 241.936 164.27 242.28 164.799 242.635C167.721 244.321 170.13 243.835 173.28 242.994C173.304 242.987 173.326 242.98 173.348 242.974C175.717 240.625 175.772 240.481 177.002 237.138C176.99 236.785 176.979 236.432 176.967 236.068C176.935 235.129 176.934 235.128 176.902 234.17C177.807 234.082 178.713 234 179.619 233.921C180.123 233.875 180.628 233.829 181.147 233.781C182.846 233.713 184.483 233.742 186.18 233.815C189.373 233.949 192.533 233.888 195.725 233.765C196.888 233.724 198.052 233.684 199.215 233.645C199.814 233.624 200.414 233.603 201.032 233.582C204.249 233.48 207.468 233.409 210.686 233.339C211.284 233.326 211.883 233.311 212.5 233.298C213.07 233.285 213.64 233.274 214.228 233.261C214.767 233.248 215.307 233.235 215.862 233.223C216.861 233.203 217.86 233.188 218.858 233.18C219.293 233.175 219.728 233.172 220.176 233.167C220.552 233.165 220.929 233.164 221.317 233.162C222.293 233.149 222.294 233.148 223.195 232.463C222.954 232.167 222.713 231.871 222.465 231.565C221.419 230.142 220.603 228.687 219.769 227.13C219.521 226.67 219.521 226.669 219.269 226.2C218.728 225.193 218.188 224.184 217.65 223.176C217.274 222.473 216.896 221.77 216.52 221.067C213.557 215.543 210.61 210.009 207.674 204.47C205.842 201.013 205.843 201.011 203.94 197.593C203.037 196.009 202.257 194.414 201.488 192.763C202.043 192.49 202.598 192.218 203.17 191.938C206.091 190.25 206.875 187.92 207.722 184.771C207.727 184.748 207.732 184.724 207.737 184.702C206.888 181.477 206.79 181.357 204.511 178.62C204.2 178.454 203.888 178.287 203.567 178.116C202.738 177.674 202.737 177.674 201.891 177.223C202.267 176.395 202.649 175.569 203.033 174.745C203.245 174.285 203.458 173.825 203.677 173.352C204.467 171.846 205.311 170.443 206.223 169.011C207.935 166.312 209.462 163.546 210.951 160.72C211.498 159.692 212.044 158.664 212.592 157.637C212.874 157.107 213.157 156.577 213.447 156.031C214.967 153.194 216.515 150.372 218.062 147.55C218.35 147.025 218.638 146.499 218.935 145.958C219.209 145.458 219.484 144.959 219.767 144.444C220.026 143.971 220.284 143.496 220.551 143.009C221.033 142.134 221.519 141.261 222.012 140.393C222.225 140.014 222.439 139.635 222.659 139.245C222.846 138.918 223.033 138.591 223.226 138.254C223.702 137.402 223.702 137.402 223.56 136.279C223.183 136.34 222.805 136.4 222.417 136.462C220.661 136.656 218.993 136.636 217.228 136.58C216.705 136.564 216.705 136.564 216.172 136.548C215.029 136.513 213.886 136.475 212.743 136.437C211.947 136.412 211.149 136.387 210.353 136.362C204.087 136.166 197.821 135.95 191.556 135.724C187.646 135.581 187.645 135.58 183.733 135.519C181.911 135.509 180.138 135.386 178.324 135.227C178.366 134.61 178.407 133.994 178.45 133.358C178.449 129.984 176.824 128.14 174.521 125.833C174.503 125.816 174.485 125.8 174.469 125.784C171.251 124.907 171.098 124.932 167.588 125.538C167.288 125.725 166.988 125.911 166.68 126.104C165.882 126.601 165.882 126.601 165.067 127.108C164.539 126.369 164.015 125.625 163.493 124.88C163.201 124.466 162.909 124.052 162.608 123.626C161.7 122.189 160.907 120.757 160.122 119.251C158.641 116.419 157.009 113.713 155.306 111.011C154.689 110.024 154.072 109.035 153.456 108.048C153.138 107.539 152.82 107.029 152.493 106.505C150.796 103.77 149.126 101.018 147.456 98.2666C147.145 97.7549 146.834 97.243 146.514 96.7158C146.218 96.2284 145.923 95.7405 145.618 95.2383C145.338 94.7774 145.056 94.3166 144.768 93.8418C144.251 92.9871 143.739 92.1294 143.232 91.2686C143.011 90.8943 142.791 90.5194 142.562 90.1338C142.373 89.8085 142.183 89.4826 141.987 89.1475C141.488 88.309 141.487 88.3091 140.443 87.8711C140.307 88.2278 140.17 88.5846 140.03 88.9521ZM337.001 109C339.61 111.609 339.899 113.724 340.833 117.295C341.004 117.941 341.174 118.587 341.351 119.252C341.916 121.394 342.472 123.539 343.028 125.684C343.421 127.179 343.815 128.675 344.209 130.17C345.248 134.118 346.279 138.068 347.308 142.019C348.346 146 349.391 149.979 350.437 153.959C351.616 158.451 352.795 162.944 353.968 167.438C354.147 168.124 354.327 168.81 354.512 169.518C355.024 171.48 355.536 173.443 356.048 175.406C357.144 179.54 358.301 183.655 359.491 187.762C360.001 190 360.001 190 360.001 194C363.497 190.849 365.719 187.345 367.97 183.266C368.713 181.957 369.456 180.648 370.2 179.34C371.358 177.287 372.511 175.231 373.655 173.171C374.768 171.174 375.899 169.188 377.032 167.203C377.371 166.581 377.71 165.96 378.059 165.319C379.05 163.599 379.05 163.598 381.001 161C385.673 161 387.193 162.046 391.122 164.465C391.995 164.994 391.995 164.995 392.885 165.534C394.741 166.66 396.591 167.798 398.438 168.938C400.283 170.073 402.13 171.206 403.981 172.33C405.665 173.352 407.342 174.385 409.019 175.418C411.841 176.915 413.825 177.802 417.001 178C418.999 177.272 418.999 177.272 420.786 175.938C421.476 175.473 422.167 175.009 422.878 174.53C423.599 174.025 424.321 173.52 425.063 173C426.572 171.981 428.083 170.964 429.595 169.949C430.708 169.196 430.709 169.196 431.845 168.428C436.429 165.394 441.216 162.702 446.001 160C447.985 163.018 449.962 166.04 451.938 169.062L453.589 171.572C457.09 176.935 460.45 182.368 463.733 187.865C464.146 188.554 464.559 189.243 464.983 189.953C465.99 191.635 466.996 193.317 468.001 195C468.274 193.992 468.547 192.984 468.829 191.945C471.403 182.454 473.979 172.963 476.555 163.473C477.879 158.593 479.203 153.713 480.526 148.833C481.803 144.126 483.08 139.418 484.358 134.711C484.846 132.914 485.334 131.116 485.821 129.318C486.503 126.804 487.185 124.29 487.868 121.776C488.07 121.03 488.272 120.283 488.48 119.514C489.259 116.65 490.062 113.817 491.001 111C503.066 113.765 515.044 116.798 527.001 120C526.387 125.956 525.217 131.518 523.644 137.289C523.404 138.183 523.164 139.078 522.918 139.999C522.128 142.947 521.33 145.894 520.532 148.84C519.972 150.924 519.412 153.008 518.853 155.093C517.375 160.594 515.89 166.093 514.404 171.592C512.927 177.063 511.457 182.537 509.985 188.01C503.707 211.353 497.385 234.685 491.001 258L487.712 257.125C486.267 256.75 484.821 256.375 483.376 256L481.216 255.422C474.032 253.551 474.031 253.551 466.884 254.875L462.001 258C460.951 256.568 459.912 255.129 458.876 253.688L457.118 251.262C455.311 248.478 453.729 245.702 452.161 242.781C449.203 237.288 445.952 232.048 442.563 226.812C441.336 224.9 440.109 222.987 438.884 221.074C438.251 220.087 437.618 219.101 436.967 218.084C433.589 212.786 430.264 207.456 426.938 202.125C426.32 201.134 425.701 200.142 425.063 199.12C424.474 198.176 423.885 197.231 423.278 196.258C422.72 195.365 422.161 194.472 421.586 193.552C420.557 191.896 419.537 190.234 418.528 188.565C418.087 187.84 417.647 187.114 417.192 186.367C416.814 185.737 416.436 185.106 416.046 184.457C415.051 182.832 415.051 182.831 413.001 182C412.744 182.7 412.487 183.4 412.222 184.121C410.875 187.296 409.248 190.114 407.466 193.066C406.94 193.941 406.939 193.941 406.402 194.834C405.251 196.746 404.095 198.654 402.938 200.562C402.135 201.895 401.331 203.228 400.527 204.561C394.207 215.04 387.856 225.501 381.485 235.949C377.508 242.469 377.507 242.47 373.665 249.07C371.907 252.165 370.006 255.064 368.001 258L364.938 256C359.194 252.778 354.504 253.783 348.376 255.5L345.649 256.344C342.981 257.005 340.735 257.048 338.001 257C337.771 256.135 337.541 255.269 337.305 254.378C335.068 245.954 332.83 237.53 330.592 229.106C329.156 223.703 327.722 218.299 326.288 212.896C321.825 196.075 317.36 179.255 312.786 162.464C312.24 160.459 311.696 158.454 311.152 156.449C309.506 150.383 307.853 144.319 306.183 138.26C305.603 136.128 305.024 133.996 304.446 131.863C304.18 130.91 303.913 129.956 303.639 128.974C303.405 128.105 303.171 127.236 302.931 126.341C302.725 125.593 302.52 124.845 302.309 124.075C301.965 121.76 302.287 120.211 303.001 118C307.802 116.667 312.608 115.349 317.417 114.045C319.053 113.599 320.689 113.149 322.323 112.694C324.668 112.043 327.018 111.407 329.368 110.773C330.101 110.566 330.835 110.359 331.591 110.146C333.373 109.673 335.187 109.325 337.001 109ZM582 258H544V111H582V258ZM639.001 61H750.001V91H639.001V258H604.001V91H592.001V61H604.001V0H639.001V61ZM700 226H768V111H806V258H662V111H700V226ZM549.719 62.6211C556.062 56.95 563.175 55.3046 571.188 58.9102C576.234 61.7363 580.164 65.8404 582 71.3477C582.798 77.7648 582.222 82.3563 578.426 87.6602C574.725 92.0406 570.676 94.8899 564.93 95.6055C559.306 95.8914 555.394 94.9194 551 91.3477C546.617 86.9992 543.724 82.7926 543.625 76.5352C543.776 70.502 545.492 66.8669 549.719 62.6211Z" fill="#232323"/>
</svg>
